HIERARCHY
ROOT root
{
	OFFSET	0	13.1	24.9
	CHANNELS 6  Xposition Yposition Zposition Xrotation Yrotation Zrotation
	JOINT spine_1
	{
		OFFSET	0	9.99999	0
		CHANNELS 3  Xrotation Yrotation Zrotation
		JOINT spine_2
		{
			OFFSET	0	112	-10
			CHANNELS 3  Xrotation Yrotation Zrotation
			JOINT spine_3
			{
				OFFSET	0	206.5	19.3
				CHANNELS 3  Xrotation Yrotation Zrotation
				JOINT spine_4
				{
					OFFSET	0	110.4	14.6
					CHANNELS 3  Xrotation Yrotation Zrotation
					JOINT neck_1
					{
						OFFSET	0	71.8	-50.3
						CHANNELS 3  Xrotation Yrotation Zrotation
						JOINT neck_2
						{
							OFFSET	0	86.2	-25.8
							CHANNELS 3  Xrotation Yrotation Zrotation
							JOINT head_ee
							{
								OFFSET	0	179.8	-8.7
								CHANNELS 3  Xrotation Yrotation Zrotation
								End Site
								{
									OFFSET	1	0	0
								}
							}
						}
					}
					JOINT left_clavicle
					{
						OFFSET	-43.2	22.4	-70.8
						CHANNELS 3  Xrotation Yrotation Zrotation
						JOINT left_shoulder
						{
							OFFSET	-93.9	-5.79999	48.7
							CHANNELS 3  Xrotation Yrotation Zrotation
							JOINT left_elbow
							{
								OFFSET	-291.4	-30.8	15.2
								CHANNELS 3  Xrotation Yrotation Zrotation
								JOINT left_lowarm_twist
								{
									OFFSET	-110.7	-3.89999	13.6
									CHANNELS 3  Xrotation Yrotation Zrotation
									JOINT left_hand
									{
										OFFSET	-110.7	-3.89999	13.6
										CHANNELS 3  Xrotation Yrotation Zrotation
										JOINT left_ee
										{
											OFFSET	-80.8	-5.10001	12.1
											CHANNELS 3  Xrotation Yrotation Zrotation
											End Site
											{
												OFFSET	1	0	0
											}
										}
									}
								}
							}
						}
					}
					JOINT right_clavicle
					{
						OFFSET	43.2	22.4	-70.8
						CHANNELS 3  Xrotation Yrotation Zrotation
						JOINT right_shoulder
						{
							OFFSET	93.9	-5.79999	48.7
							CHANNELS 3  Xrotation Yrotation Zrotation
							JOINT right_elbow
							{
								OFFSET	291.4	-30.8	15.2
								CHANNELS 3  Xrotation Yrotation Zrotation
								JOINT right_lowarm_twist
								{
									OFFSET	110.7	-3.89999	13.6
									CHANNELS 3  Xrotation Yrotation Zrotation
									JOINT right_hand
									{
										OFFSET	110.7	-3.89999	13.6
										CHANNELS 3  Xrotation Yrotation Zrotation
										JOINT right_ee
										{
											OFFSET	80.8	-5.10001	12.1
											CHANNELS 3  Xrotation Yrotation Zrotation
											End Site
											{
												OFFSET	1	0	0
											}
										}
									}
								}
							}
						}
					}
				}
			}
		}
	}
	JOINT left_hip
	{
		OFFSET	-82.8	-127.5	0.300001
		CHANNELS 3  Xrotation Yrotation Zrotation
		JOINT left_knee
		{
			OFFSET	-28.2	-396.7	2.2
			CHANNELS 3  Xrotation Yrotation Zrotation
			JOINT left_ankle
			{
				OFFSET	-11.7	-411.3	35.4
				CHANNELS 3  Xrotation Yrotation Zrotation
				JOINT left_toes
				{
					OFFSET	0	-60	-88.6
					CHANNELS 3  Xrotation Yrotation Zrotation
					JOINT left_foot_ee
					{
						OFFSET	-22.5	-16.5	-42.2
						CHANNELS 3  Xrotation Yrotation Zrotation
						End Site
						{
							OFFSET	1	0	0
						}
					}
				}
			}
		}
	}
	JOINT right_hip
	{
		OFFSET	82.8	-127.5	0.300001
		CHANNELS 3  Xrotation Yrotation Zrotation
		JOINT right_knee
		{
			OFFSET	28.2	-396.7	2.2
			CHANNELS 3  Xrotation Yrotation Zrotation
			JOINT right_ankle
			{
				OFFSET	11.7	-411.3	35.4
				CHANNELS 3  Xrotation Yrotation Zrotation
				JOINT right_toes
				{
					OFFSET	0	-60	-88.6
					CHANNELS 3  Xrotation Yrotation Zrotation
					JOINT right_foot_ee
					{
						OFFSET	22.5	-16.5	-42.2
						CHANNELS 3  Xrotation Yrotation Zrotation
						End Site
						{
							OFFSET	1	0	0
						}
					}
				}
			}
		}
	}
}
MOTION
Frames: 9
Frame Time: 0.02
3499.02616676 674.387 -1540.14312467 92.4307690811 84.4100813737 -84.4589764239 -2.08711 -0.244669 -2.20407 -2.08441 -0.103957 -2.21517 -2.07761 0.443193 -2.17289 -2.08419 0.0945521 -2.21559 -19.1176 3.31015 -3.16797 -19.1774 8.03361 -1.61575 -0.0 0.0 -0.0 8.29776 13.2213 15.4648 -8.83892 -11.9219 67.791 1.37442 -34.247 0.42346 -23.9472 -1.4272 2.68646 -3.80013 26.4584 -10.7198 -0.0 0.0 -0.0 11.9949 17.1789 -24.0935 -5.5548 4.45441 -56.2077 1.01718 26.7421 -0.24179 38.2909 0.263364 4.79448 4.64508 -29.0383 -40.2127 0.0 0.0 0.0 23.5831 -5.24792 -21.6747 -63.8808 -2.63329 8.93864 32.6942 -2.04284 -4.20866 -2.84307 0.0 0.0 -0.0 0.0 -0.0 18.2839 7.92691 -16.618 -57.8688 1.97431 -8.28648 37.4787 -3.62338 4.63468 8.39794 -0.0 -0.0 0.0 0.0 0.0 
3501.12720323 674.387 -1542.48893234 74.3484805658 84.1993438955 -66.2885088584 -2.08711 -0.244669 -2.20407 -2.08441 -0.103957 -2.21517 -2.07761 0.443193 -2.17289 -2.08419 0.0945521 -2.21559 -19.1176 3.31015 -3.16797 -19.1774 8.03361 -1.61575 -0.0 0.0 -0.0 8.29776 13.2213 15.4648 -8.83892 -11.9219 67.791 1.37442 -34.247 0.42346 -23.9472 -1.4272 2.68646 -3.80013 26.4584 -10.7198 -0.0 0.0 -0.0 11.9949 17.1789 -24.0935 -5.5548 4.45441 -56.2077 1.01718 26.7421 -0.24179 38.2909 0.263364 4.79448 4.64508 -29.0383 -40.2127 0.0 0.0 0.0 23.5831 -5.24792 -21.6747 -63.8808 -2.63329 8.93864 32.6942 -2.04284 -4.20866 -2.84307 0.0 0.0 -0.0 0.0 -0.0 18.2839 7.92691 -16.618 -57.8688 1.97431 -8.28648 37.4787 -3.62338 4.63468 8.39794 -0.0 -0.0 0.0 0.0 0.0 
3478.61834663 668.072 -1539.61391123 127.711914282 80.6575181151 -120.225372545 -3.02691 -0.281874 -2.06631 -3.02455 -0.149847 -2.08005 -3.016 0.399065 -2.04692 -3.02184 0.0708579 -2.08423 -17.2366 3.27334 -4.53868 -17.2674 8.81124 -3.03927 -0.0 0.0 -0.0 8.27742 12.3637 15.502 -9.29642 -7.23214 67.4057 1.01182 -26.6206 0.239382 -22.9913 -1.34935 2.5919 -4.21909 28.9694 -11.4564 -0.0 0.0 -0.0 12.2284 16.141 -24.6775 -0.661258 9.03399 -53.1959 1.34233 33.6202 -0.405547 34.719 0.103443 4.3668 4.64525 -25.5344 -39.9564 0.0 0.0 0.0 28.5252 -7.07406 -23.0428 -69.9685 -3.3669 9.5257 25.6091 -1.09147 -3.43166 -3.9276 0.0 0.0 -0.0 0.0 -0.0 13.8193 10.3821 -18.543 -57.1023 1.89535 -8.19852 40.1514 -1.48991 4.87968 12.6889 -0.0 -0.0 0.0 0.0 0.0 
3468.29665501 665.22 -1536.00907492 133.095958078 78.2715158523 -125.305794879 -3.48338 -0.222698 -2.05306 -3.48104 -0.0916336 -2.06306 -3.47451 0.466965 -2.01163 -3.48013 0.143476 -2.06011 -17.0867 2.96242 -4.90737 -17.099 8.43054 -3.51128 -0.0 0.0 -0.0 8.43115 12.4606 15.7649 -9.66287 -5.54733 67.3901 0.83557 -22.4853 0.166097 -21.5771 -1.23712 2.44968 -4.23717 28.9364 -11.5777 -0.0 0.0 -0.0 12.0619 15.6361 -24.3161 1.88744 10.0347 -52.9456 1.47261 36.108 -0.48004 33.7969 0.0665239 4.25487 4.68982 -24.3173 -40.1736 0.0 0.0 0.0 31.8159 -7.48219 -21.8194 -72.0549 -3.63219 9.70866 20.5216 4.98798 -2.797 -4.11158 0.0 0.0 -0.0 0.0 -0.0 11.8679 11.1254 -19.5654 -56.6402 1.84833 -8.145 40.5259 -1.64052 4.91087 15.4001 -0.0 -0.0 0.0 0.0 0.0 
3451.60239652 666.096 -1532.06686975 139.603927963 74.8878718088 -132.132495683 -4.00019 -0.172419 -2.00958 -3.99795 -0.0442212 -2.01648 -3.99311 0.517781 -1.9494 -3.99836 0.203478 -2.00668 -14.7732 3.34913 -5.5623 -14.7655 9.72633 -4.1697 -0.0 0.0 -0.0 8.09434 12.4068 15.1763 -10.632 -4.37168 67.3367 0.752152 -20.435 0.135573 -21.4178 -1.2247 2.43349 -4.28372 29.0677 -11.7472 -0.0 0.0 -0.0 12.1177 16.675 -24.3997 3.9193 9.84017 -51.9912 1.56544 37.79 -0.535848 33.0253 0.0370183 4.16076 4.58773 -22.2448 -39.0814 0.0 0.0 0.0 34.2525 -7.48393 -20.9371 -70.4084 -3.42227 9.56507 16.7901 0.678699 -2.34116 -4.85696 0.0 0.0 -0.0 0.0 -0.0 11.044 13.5832 -21.7394 -57.1242 1.89759 -8.20105 40.3123 -3.97806 4.88539 17.8958 -0.0 -0.0 0.0 0.0 0.0 
3439.22299294 668.532 -1528.25638182 145.252945518 73.0508781353 -137.969042363 -4.19449 -0.0703902 -1.9507 -4.19238 0.0538563 -1.95122 -4.19125 0.600331 -1.85739 -4.19594 0.299515 -1.92886 -13.6128 4.15893 -5.12322 -13.6247 11.0849 -3.59755 -0.0 0.0 -0.0 8.00902 12.6878 15.0049 -11.3032 -3.5065 67.6713 0.644302 -17.7015 0.100329 -20.568 -1.1592 2.34655 -4.24491 28.7691 -11.7307 -0.0 0.0 -0.0 12.1997 16.7918 -24.5826 6.63657 9.58124 -52.3746 1.6867 39.8769 -0.611897 33.7334 0.064046 4.24713 4.34841 -19.2339 -36.6582 0.0 0.0 0.0 37.3257 -7.52796 -19.7652 -68.8677 -3.22966 9.42532 9.51521 3.20127 -1.35935 -5.22302 0.0 0.0 -0.0 0.0 -0.0 10.3753 18.065 -23.6604 -53.0165 1.49491 -7.71263 40.8387 -8.89901 4.94179 20.8011 -0.0 -0.0 0.0 0.0 0.0 
3428.74467743 667.556 -1525.16855851 149.381829719 71.1850820664 -142.066081719 -4.56194 -0.0436259 -1.83623 -4.56006 0.0732869 -1.83529 -4.55969 0.597549 -1.73687 -4.56376 0.315792 -1.80941 -12.1164 4.14944 -5.57086 -12.0958 11.4441 -4.18223 -0.0 0.0 -0.0 7.57188 12.3444 14.2657 -11.9233 -2.48853 67.5885 0.597079 -16.4771 0.0864509 -19.3659 -1.06879 2.22194 -4.72621 28.8166 -14.3756 -0.0 0.0 -0.0 12.0155 17.2012 -24.1396 8.74595 10.5963 -52.2913 1.8202 42.0362 -0.699421 32.3396 0.011863 4.0768 4.49321 -18.9883 -37.7457 0.0 0.0 0.0 38.9922 -7.54007 -18.7782 -66.4257 -2.93231 9.19344 6.16257 6.50758 -0.887283 -5.823 0.0 0.0 -0.0 0.0 -0.0 9.35523 17.8243 -24.0446 -52.2741 1.42594 -7.62138 40.4832 -9.05875 4.91217 21.9279 -0.0 -0.0 0.0 0.0 0.0 
3428.52402867 667.556 -1524.52672015 149.754509377 70.9675818714 -142.460054183 -4.56194 -0.0436259 -1.83623 -4.56006 0.0732869 -1.83529 -4.55969 0.597549 -1.73687 -4.56376 0.315792 -1.80941 -12.1164 4.14944 -5.57086 -12.0958 11.4441 -4.18223 -0.0 0.0 -0.0 7.57188 12.3444 14.2657 -11.9233 -2.48853 67.5885 0.597079 -16.4771 0.0864509 -19.3659 -1.06879 2.22194 -4.72621 28.8166 -14.3756 -0.0 0.0 -0.0 12.0155 17.2012 -24.1396 8.74595 10.5963 -52.2913 1.8202 42.0362 -0.699421 32.3396 0.011863 4.0768 4.49321 -18.9883 -37.7457 0.0 0.0 0.0 38.9922 -7.54007 -18.7782 -66.4257 -2.93231 9.19344 6.16257 6.50758 -0.887283 -5.823 0.0 0.0 -0.0 0.0 -0.0 9.35523 17.8243 -24.0446 -52.2741 1.42594 -7.62138 40.4832 -9.05875 4.91217 21.9279 -0.0 -0.0 0.0 0.0 0.0 
3421.54842785 666.657 -1524.39842588 153.144652059 69.0139730825 -145.822470994 -4.84087 0.030122 -1.83002 -4.83902 0.14649 -1.8244 -4.84106 0.672931 -1.70211 -4.84488 0.395716 -1.78699 -13.6498 4.52381 -5.47798 -13.6666 11.9959 -3.8186 -0.0 0.0 -0.0 7.36215 13.4792 13.8288 -12.4322 -2.2654 67.4743 0.570885 -15.7911 0.0791721 -18.6229 -1.01422 2.14399 -4.53283 28.3532 -13.6133 -0.0 0.0 -0.0 12.189 17.3125 -24.5324 11.9794 11.3932 -51.0864 1.92692 43.663 -0.772005 31.9058 -0.00353035 4.02354 4.19176 -17.6479 -35.0998 0.0 0.0 0.0 40.5485 -7.45365 -17.7287 -64.1483 -2.66418 8.96605 2.21838 6.32098 -0.323047 -6.51624 0.0 0.0 -0.0 0.0 -0.0 9.18791 17.6694 -24.6606 -51.5642 1.36111 -7.5333 39.6312 -10.2754 4.84602 23.4928 -0.0 -0.0 0.0 0.0 0.0 
